<svg width="196" height="60" viewBox="0 0 196 60" fill="none" xmlns="http://www.w3.org/2000/svg">
<path d="M33.3846 37.7598L33.5766 37.9038C33.6246 37.9998 33.6246 38.0958 33.6246 38.1438C33.5766 38.2878 33.4326 38.3838 33.2886 38.4318C33.0006 38.5758 32.6646 38.6718 32.2326 38.6718C30.2646 38.7678 28.3446 38.4798 26.4726 38.1918L25.7526 38.0478C23.5926 37.7118 21.3846 37.2798 19.2726 36.8478C17.6406 36.5118 15.9606 36.1758 14.2806 35.8878C12.0726 35.5038 10.0566 35.3118 8.0886 35.3118C7.5606 35.3118 7.1766 35.4078 6.8406 35.6478C5.9766 36.2718 5.2086 36.7038 4.4886 36.9918C4.1046 37.1358 3.9606 37.3278 3.9606 37.7598C4.0086 40.9278 4.0566 44.3358 4.2006 47.7438V48.6558C4.2006 48.7518 4.2006 48.8478 4.1046 48.9438C4.0566 48.9918 3.9606 49.0398 3.8646 49.0398C3.5766 49.0398 3.4326 48.8958 3.4326 48.6078V47.5998C3.3846 47.0238 3.3366 46.3998 3.3366 45.7758L3.0486 37.9518C3.0486 37.8078 3.0486 37.7118 3.0006 37.6638C2.9526 37.6158 2.8566 37.6158 2.7606 37.6638C2.4246 37.7598 2.0886 37.8078 1.6566 37.7598C1.3206 37.7598 1.1286 37.6158 1.0326 37.3278C0.888602 36.9918 1.0806 36.7518 1.2726 36.6078C1.6566 36.2718 2.1366 35.9838 2.6166 35.8398C3.0006 35.6958 3.0486 35.5038 3.0486 35.1678C2.9526 30.9438 2.9526 26.7678 3.0006 22.7358V22.3518C3.0486 18.2238 3.0966 13.9518 3.3846 9.77578C3.4806 8.43178 3.6246 6.70378 4.0086 4.97578C4.0566 4.73578 4.1046 4.54378 4.2006 4.35178C4.3446 4.06378 4.6326 4.20778 4.7286 4.25578C4.8726 4.30378 4.9206 4.39977 4.8726 4.59177C4.5846 6.12778 4.3926 7.80778 4.2966 9.91978C3.9126 19.0878 3.9126 28.1118 3.9606 34.9278C3.9606 35.1198 4.0086 35.2158 4.0566 35.2638C4.1046 35.3118 4.2006 35.3118 4.3926 35.2638C5.0166 35.1198 5.6886 35.0238 6.3606 34.9758C6.6966 34.9278 6.9846 34.7838 7.3206 34.5438C9.7686 32.6238 12.1206 30.2718 14.7606 27.1518C16.1526 25.4718 17.5446 23.6478 18.9366 21.7278C22.2966 17.0238 24.6966 12.4638 26.2806 7.75978C26.6166 6.75178 26.8566 5.79178 27.0486 4.83177V4.68778C27.0486 4.54378 27.0486 4.35178 27.2406 4.35178C27.3366 4.35178 27.4326 4.39977 27.4806 4.44778C27.5766 4.54378 27.5766 4.73578 27.5766 4.87978C27.5286 5.40778 27.4326 5.98378 27.2406 6.65578C26.1366 10.8318 24.2166 15.0558 21.1446 19.9518C18.6966 23.8398 15.6726 27.5838 11.8806 31.4238C10.9206 32.3838 9.6246 33.6318 8.1366 34.6878C8.0886 34.7358 8.0406 34.7358 7.9926 34.7358L8.0406 34.7838H8.9046C9.5286 34.7838 10.2006 34.8318 10.8246 34.8798C13.5606 35.0718 16.2486 35.5998 18.8886 36.1278H18.9366C22.4406 36.8478 25.8966 37.5198 29.4486 37.9518C30.1206 38.0478 30.8406 38.0958 31.7046 38.0958C32.0886 38.0958 32.4726 38.0478 32.8086 37.7598C32.9046 37.6638 33.0486 37.5678 33.1926 37.6158C33.2886 37.6158 33.3366 37.6638 33.3846 37.7598ZM2.8086 37.2798L2.6646 37.2318C2.7126 37.1838 2.8086 37.0878 2.7606 36.7998C2.7606 36.5598 2.7606 36.3678 2.7126 36.3198C2.6166 36.3198 2.4726 36.4158 2.2806 36.5118L2.1846 36.5598C2.0406 36.6078 1.8966 36.6558 1.8006 36.7518L1.6566 36.8958C1.4646 37.0398 1.3686 37.1358 1.4646 37.2798C1.5606 37.4718 1.8006 37.4238 2.0886 37.3278H2.4246C2.5686 37.3278 2.7126 37.3278 2.8086 37.2798ZM5.9286 35.5998L5.8326 35.6478C5.2566 35.6478 4.6806 35.7438 4.1046 35.9358C3.8166 36.0318 3.8646 36.2718 3.9606 36.5598V36.6078C3.9606 36.6558 3.9606 36.7038 4.0086 36.7038C4.0566 36.7038 4.1526 36.6558 4.2006 36.6078C4.2486 36.5598 4.2966 36.5598 4.3446 36.5598C4.7286 36.3678 5.1126 36.1278 5.4966 35.8878L5.9286 35.5998ZM44.9665 29.9838C45.0625 29.9358 45.1585 29.9358 45.3025 29.9838C45.4465 30.0318 45.5425 30.1278 45.5905 30.2238V30.1278C45.6385 30.2718 45.5425 30.4638 45.4465 30.6078L45.3025 30.7518L45.0145 31.6158C44.2945 33.2958 43.5265 35.0238 42.3745 36.5118L41.9425 37.0878C41.2705 37.9518 40.5505 38.8638 39.6385 39.5838C39.2065 39.9198 38.6785 40.2558 38.0545 40.3038H37.7665C36.9985 40.3038 36.3745 39.9678 35.9425 39.2958C35.2705 38.2398 35.0305 37.0398 34.8865 35.9358C34.7425 34.7838 34.6465 33.6318 34.6465 32.4798C34.6465 30.8958 34.7425 29.3118 34.8385 27.8718V27.7278C34.8385 27.5838 34.8385 27.4398 34.7905 27.2478L34.3585 27.8238C34.0705 28.3038 33.7825 28.7358 33.4465 29.1678L33.0145 29.7438L32.1985 30.9438L31.8145 31.5198C30.8065 33.0078 29.7505 34.5438 28.5025 35.8878L28.0225 36.4158C27.6865 36.7518 27.3025 37.1358 26.7745 37.3278C26.4385 37.4718 26.1505 37.4718 25.9105 37.3278C25.6705 37.1838 25.4785 36.9438 25.3825 36.6078C25.1905 35.7918 25.3825 34.9758 25.5745 34.2078C26.7265 29.8398 28.7905 26.1918 31.7185 23.3118C32.8225 22.2558 33.9745 21.6798 35.2225 21.5358C36.0385 21.4398 37.0465 21.9198 37.4785 22.5918C37.9105 23.3118 37.9105 24.5118 37.4305 25.1358C37.3825 25.2318 37.2865 25.3758 37.1425 25.2798C36.9505 25.1838 36.9985 24.9918 37.0465 24.8958C37.1905 24.4158 37.3345 23.8398 37.1425 23.2158C36.9025 22.5918 36.5185 22.2078 35.9905 22.1598C35.7985 22.1598 35.6065 22.1598 35.4145 22.2078C34.2145 22.4478 33.1585 23.1198 32.0065 24.3198C29.4145 27.1038 27.5905 30.4158 26.5345 34.1118C26.3905 34.6398 26.3425 35.2158 26.2945 35.7438L26.1505 36.4638C26.1505 36.6078 26.1505 36.7998 26.2465 36.8478C26.3425 36.8958 26.4385 36.8478 26.5345 36.7518C27.3985 35.9838 28.1185 35.0718 28.7905 34.1598L29.0785 33.7278C29.3185 33.4398 29.5585 33.1518 29.7505 32.8638C29.9905 32.5278 30.2305 32.1918 30.5185 31.8558C31.3825 30.7518 32.1505 29.5038 32.8705 28.3038L33.8785 26.7198L34.0225 26.5758C34.0705 26.4798 34.1185 26.3838 34.2145 26.2878L34.3585 26.1438C34.5025 25.9518 34.6465 25.7118 34.9825 25.8078C35.4145 25.9518 35.6545 26.2398 35.7025 26.6718C35.7505 27.3918 35.7025 28.1118 35.6545 28.7838C35.5105 30.2718 35.4145 31.6638 35.4145 32.9598C35.4145 34.2558 35.5105 35.5518 35.6545 36.7038C35.7505 37.4238 35.9425 38.0478 36.1825 38.5758L36.4225 39.0558C36.5665 39.2958 36.6625 39.4398 36.8065 39.5358C37.0945 39.7278 37.3825 39.7278 37.8625 39.5358C38.8705 39.1038 39.5905 38.2878 40.2625 37.5198L40.3105 37.4718C42.1345 35.3598 43.4305 32.9118 44.5345 30.6078L44.6305 30.4638C44.6785 30.2718 44.7745 30.0318 44.9665 29.9838ZM58.1219 18.2718L58.0739 18.2238C58.2179 18.3198 58.4099 18.4158 58.3139 18.6078C58.2179 18.7998 58.0259 18.7038 57.8819 18.6558C57.4019 18.4638 56.8739 18.2718 56.3939 18.1758C55.6259 18.0318 54.9059 17.9358 54.1379 17.8398L53.3219 17.6958C51.6899 17.4558 50.0579 17.3118 48.4259 17.3598C47.8979 17.3598 47.3219 17.4078 46.7459 17.4558C46.3619 17.5038 46.2179 17.6478 46.1699 18.0318C46.1699 18.3198 46.1219 18.5598 46.1219 18.8478C45.9779 21.2478 45.8339 23.5998 45.8339 25.9998C45.8339 26.8158 45.8819 27.5838 45.8819 28.3998C45.9779 32.2398 46.1219 36.0798 46.4099 39.8718C46.5059 41.3598 46.5539 42.8478 46.6019 44.3358C46.6019 44.6238 46.5539 44.9598 46.5059 45.2478C46.4579 45.5838 46.2179 45.6798 45.9299 45.5838C45.6899 45.4878 45.5459 45.3438 45.6419 45.0558C45.8339 44.5278 45.7379 43.9518 45.6899 43.4238L45.4019 40.0158L44.9699 34.0638C44.8259 31.8078 44.7299 29.5518 44.7299 27.2478C44.7299 26.3838 44.7299 25.5198 44.7779 24.6558C44.7779 24.1278 44.8259 23.5518 44.8259 23.0238C44.8739 21.3918 44.9699 19.8078 45.1139 18.1758C45.1619 17.8398 45.0179 17.7918 44.7299 17.8398C42.8579 18.1758 41.0819 18.7038 39.3539 19.4718C39.1139 19.5678 38.8739 19.6638 38.6339 19.8078L37.4819 20.3838C37.0979 20.6238 36.7139 20.8638 36.4259 21.1998C36.1859 21.4878 35.8019 21.4878 35.4659 21.2478V21.1038C38.0579 19.0878 41.0339 17.8878 44.2019 17.2158C44.9219 17.0718 45.0659 17.0718 45.1619 16.7838C45.2099 16.6398 45.2099 16.3998 45.2579 16.0158C45.4019 14.0958 45.5939 12.1758 45.7859 10.2558C45.8339 10.0158 45.7859 9.63178 46.1699 9.63178C46.6019 9.63178 46.6019 10.0158 46.6019 10.3518C46.6019 11.3598 46.5059 12.3198 46.4579 13.3278C46.4099 14.0478 46.3619 14.8158 46.3619 15.5358C46.3619 15.6798 46.3139 15.8238 46.3139 15.9678C46.2659 16.7358 46.2179 16.7838 46.9859 16.7358C47.5139 16.6878 48.0899 16.6878 48.6179 16.6878C51.5939 16.6878 54.4739 17.2638 57.3539 17.9358C57.6419 17.9838 57.8819 18.0798 58.1219 18.2718ZM64.7552 29.9358C64.8992 29.7918 65.0432 29.5998 65.2352 29.7438C65.2832 29.7438 65.3312 29.7918 65.3792 29.7918C65.4752 29.8878 65.4752 29.9358 65.4752 30.0318L65.3312 30.2718C65.1872 30.5598 64.9472 30.7518 64.7072 30.9918C62.2112 33.4398 59.7152 35.8878 57.3152 38.4318L55.0112 41.0238C54.7232 41.3118 54.5792 41.6478 54.5312 42.0798C54.1472 45.5358 53.6192 48.9438 52.5632 52.3038L52.2272 53.3118C51.6512 55.0398 50.8352 56.6718 49.7792 58.2078C49.5392 58.5918 49.2512 58.8798 48.9152 59.1678C48.7232 59.3118 48.5312 59.4078 48.3392 59.4558C48.1472 59.5038 47.9072 59.5038 47.7152 59.4078C47.2832 59.2158 47.1872 58.7838 47.1392 58.3518C47.0432 57.2958 47.1392 56.2398 47.3312 55.1838C48.0992 50.3838 50.3552 46.2558 53.2352 42.4158C53.4272 42.1278 53.5232 41.8398 53.5712 41.5038C53.8592 38.3838 54.0032 35.2638 54.1472 32.1438C54.1472 31.8558 54.1952 31.5678 54.1952 31.2798C54.2432 30.4158 54.2912 29.5518 54.2432 28.6398C54.2432 28.3998 54.2432 28.1118 54.5312 28.1118C54.6752 28.1118 54.8192 28.1598 54.9152 28.2558C55.0112 28.3518 55.0592 28.4478 55.1072 28.5918C55.1552 28.8798 55.1552 29.2158 55.1552 29.5038C55.1552 31.7118 55.0112 33.8718 54.8672 36.0318C54.7712 37.4718 54.7232 38.9118 54.6752 40.4958L56.7872 38.0958C58.6592 36.0318 60.5792 34.1118 62.5472 32.1438L64.7552 29.9358ZM52.7552 47.5998C53.0432 46.2078 53.2352 44.7678 53.3792 43.3278C53.2832 43.3758 53.2352 43.3758 53.2352 43.3758C53.1392 43.4718 53.0912 43.5678 53.0432 43.6638C50.4512 47.2638 48.5792 51.1998 47.8112 55.5678C47.6672 56.5278 47.6192 57.4878 47.8112 58.4478C47.8592 58.6398 47.8592 58.9278 48.0512 59.0238C48.3392 59.1198 48.4832 58.8318 48.6272 58.6878C48.8672 58.4478 49.0592 58.2078 49.2512 57.9198C49.6352 57.3918 49.9712 56.8158 50.2592 56.1918C51.6032 53.5038 52.2272 50.5758 52.8032 47.6478L52.7552 47.5998ZM55.0592 16.1118V16.1598C54.7712 16.1598 54.5312 16.1598 54.4352 15.8718C54.3392 15.7278 54.3392 15.6318 54.4352 15.5358C54.4832 15.4398 54.6272 15.3918 54.7712 15.3438C54.9152 15.2958 54.8672 15.1998 54.8672 15.1038C54.9152 14.6718 55.2512 14.4798 55.6352 14.6238C55.7792 14.7198 55.9712 14.8158 56.0672 14.9598L56.3552 15.3918C56.4032 15.4398 56.4032 15.4878 56.4032 15.5358C56.4032 15.6798 56.2592 15.7758 56.1152 15.8238C55.7792 16.0158 55.3952 16.0638 55.0592 16.1118ZM82.7477 29.9838C82.8437 29.9358 82.9397 29.9358 83.0837 29.9838C83.2277 30.0318 83.3237 30.1278 83.3717 30.2238V30.1278C83.4197 30.2718 83.3237 30.4638 83.2277 30.6078L83.0837 30.7518L82.7957 31.6158C82.0757 33.2958 81.3077 35.0238 80.1557 36.5118L79.7237 37.0878C79.0517 37.9518 78.3317 38.8638 77.4197 39.5838C76.9877 39.9198 76.4597 40.2558 75.8357 40.3038H75.5477C74.7797 40.3038 74.1557 39.9678 73.7237 39.2958C73.0517 38.2398 72.8117 37.0398 72.6677 35.9358C72.5237 34.7838 72.4277 33.6318 72.4277 32.4798C72.4277 30.8958 72.5237 29.3118 72.6197 27.8718V27.7278C72.6197 27.5838 72.6197 27.4398 72.5717 27.2478L72.1397 27.8238C71.8517 28.3038 71.5637 28.7358 71.2277 29.1678L70.7957 29.7438L69.9797 30.9438L69.5957 31.5198C68.5877 33.0078 67.5317 34.5438 66.2837 35.8878L65.8037 36.4158C65.4677 36.7518 65.0837 37.1358 64.5557 37.3278C64.2197 37.4718 63.9317 37.4718 63.6917 37.3278C63.4517 37.1838 63.2597 36.9438 63.1637 36.6078C62.9717 35.7918 63.1637 34.9758 63.3557 34.2078C64.5077 29.8398 66.5717 26.1918 69.4997 23.3118C70.6037 22.2558 71.7557 21.6798 73.0037 21.5358C73.8197 21.4398 74.8277 21.9198 75.2597 22.5918C75.6917 23.3118 75.6917 24.5118 75.2117 25.1358C75.1637 25.2318 75.0677 25.3758 74.9237 25.2798C74.7317 25.1838 74.7797 24.9918 74.8277 24.8958C74.9717 24.4158 75.1157 23.8398 74.9237 23.2158C74.6837 22.5918 74.2997 22.2078 73.7717 22.1598C73.5797 22.1598 73.3877 22.1598 73.1957 22.2078C71.9957 22.4478 70.9397 23.1198 69.7877 24.3198C67.1957 27.1038 65.3717 30.4158 64.3157 34.1118C64.1717 34.6398 64.1237 35.2158 64.0757 35.7438L63.9317 36.4638C63.9317 36.6078 63.9317 36.7998 64.0277 36.8478C64.1237 36.8958 64.2197 36.8478 64.3157 36.7518C65.1797 35.9838 65.8997 35.0718 66.5717 34.1598L66.8597 33.7278C67.0997 33.4398 67.3397 33.1518 67.5317 32.8638C67.7717 32.5278 68.0117 32.1918 68.2997 31.8558C69.1637 30.7518 69.9317 29.5038 70.6517 28.3038L71.6597 26.7198L71.8037 26.5758C71.8517 26.4798 71.8997 26.3838 71.9957 26.2878L72.1397 26.1438C72.2837 25.9518 72.4277 25.7118 72.7637 25.8078C73.1957 25.9518 73.4357 26.2398 73.4837 26.6718C73.5317 27.3918 73.4837 28.1118 73.4357 28.7838C73.2917 30.2718 73.1957 31.6638 73.1957 32.9598C73.1957 34.2558 73.2917 35.5518 73.4357 36.7038C73.5317 37.4238 73.7237 38.0478 73.9637 38.5758L74.2037 39.0558C74.3477 39.2958 74.4437 39.4398 74.5877 39.5358C74.8757 39.7278 75.1637 39.7278 75.6437 39.5358C76.6517 39.1038 77.3717 38.2878 78.0437 37.5198L78.0917 37.4718C79.9157 35.3598 81.2117 32.9118 82.3157 30.6078L82.4117 30.4638C82.4597 30.2718 82.5557 30.0318 82.7477 29.9838ZM132.445 24.0318C129.997 23.7918 127.645 24.3678 125.293 24.7518C124.093 24.9918 122.893 25.3278 121.693 25.5678C121.405 25.6158 121.309 25.7598 121.357 26.0478C122.365 31.6638 123.421 37.2318 125.389 42.6078C125.581 43.0878 125.821 43.5678 126.109 43.9998C126.301 44.2878 126.493 44.5758 126.877 44.5758C126.973 44.5758 127.117 44.6238 127.165 44.7678C127.213 44.9598 127.069 45.0078 126.973 45.0558C126.445 45.2478 126.013 45.1038 125.629 44.7198C125.197 44.2878 124.909 43.7598 124.669 43.1838C123.373 40.1598 122.605 36.9438 121.837 33.7278C121.261 31.3278 120.733 28.9278 120.349 26.5278C120.301 26.1438 120.205 25.9998 119.773 26.1438C117.949 26.6718 116.077 27.0558 114.253 27.6798C112.861 28.1598 111.421 28.4958 110.029 29.0238C107.677 29.9358 105.325 30.8958 103.069 32.0478C102.829 32.1438 102.733 32.3358 102.685 32.5758C101.917 37.6638 100.909 42.7038 99.901 47.7438C99.805 48.1758 99.421 48.5598 99.757 49.0878C99.805 49.1838 99.421 49.3758 99.181 49.3758C98.845 49.3758 98.893 49.1358 98.941 48.9438C99.229 47.7918 99.373 46.5918 99.565 45.4398L101.725 33.0558V32.7198L100.237 33.4878C98.797 34.2558 97.309 34.9758 95.869 35.7918C93.757 36.9918 91.741 38.3358 89.581 39.3918C88.237 40.0638 86.893 40.6878 85.405 40.8798C84.685 40.9758 83.965 40.9758 83.245 40.6878C82.813 40.4958 82.477 40.2078 82.333 39.7278C82.237 39.4398 82.285 39.1998 82.429 39.0078C82.573 38.8638 82.765 38.6718 82.957 38.8158C83.149 38.9598 82.861 39.0558 82.813 39.1998C82.573 39.6798 82.909 40.2558 83.533 40.4478C84.253 40.6878 84.973 40.5918 85.693 40.4478C87.421 40.0638 88.957 39.1998 90.493 38.3358C92.221 37.3758 93.901 36.3678 95.581 35.3598C97.549 34.2078 99.517 33.0558 101.581 32.0958C101.965 31.9038 102.013 31.6158 102.061 31.2798C102.349 29.2638 102.733 27.2478 103.165 25.2318C104.365 19.8078 106.093 14.5758 108.829 9.72777C110.365 7.03977 112.093 4.49578 114.397 2.38377C114.877 1.90378 115.405 1.47178 116.029 1.13578C117.469 0.367775 118.861 0.895777 119.389 2.43177C119.821 3.72777 119.869 5.07177 119.917 6.41577C120.061 9.67978 120.109 12.9438 120.253 16.2078C120.397 19.1358 120.733 22.0638 121.117 24.9918C121.165 25.3758 121.309 25.4718 121.693 25.3758C124.573 24.7038 127.453 24.1278 130.429 23.9358C131.101 23.8878 131.773 23.9358 132.445 24.0318ZM119.581 25.4718L119.485 25.4238C119.677 25.3758 119.965 25.4238 119.917 25.0398V24.7998C119.677 23.0718 119.485 21.3438 119.341 19.6158C118.957 15.2958 118.861 10.9758 118.765 6.65578C118.717 5.16778 118.717 3.67978 118.381 2.23978C118.093 0.943776 117.709 0.799775 116.557 1.42378C115.357 2.09578 114.397 3.05577 113.485 4.06378C111.325 6.51178 109.645 9.24778 108.253 12.1758C107.149 14.5278 106.285 16.9758 105.469 19.4718C104.269 23.0718 103.693 26.8158 102.829 30.5118C102.781 30.6558 102.781 30.8478 102.877 30.9438C102.973 31.0398 103.117 30.9438 103.213 30.8958C107.005 29.0718 111.037 27.8238 115.117 26.6718C116.605 26.2398 118.093 25.8558 119.581 25.4718ZM132.445 24.0318V23.6478C132.685 23.6958 132.973 23.6958 133.117 23.9358C133.021 24.0798 132.925 24.0798 132.829 24.0798C132.685 24.0798 132.541 24.0798 132.445 24.0318ZM149.806 29.6958C149.662 29.6958 149.518 29.6478 149.374 29.6478V29.9838C149.086 31.3758 148.51 32.6238 148.03 33.5838C147.838 33.9198 147.694 34.2558 147.55 34.5918C146.926 35.9838 146.254 37.4238 145.246 38.6238C144.958 39.0078 144.574 39.4878 143.95 39.6318C143.134 39.8238 142.366 39.4878 141.838 38.6718C141.214 37.7118 140.878 36.6558 140.59 35.6958C140.158 34.3038 139.822 32.8638 139.534 31.4718L138.958 28.9758V28.6878C138.91 28.3518 138.862 28.0158 138.622 27.9678C138.382 27.9198 138.286 28.1118 138.19 28.4478L138.046 28.7358C136.75 31.0398 135.742 33.4878 134.782 35.8878L134.494 36.6078C133.39 39.2958 132.382 42.1278 131.566 44.9598C131.47 45.2958 131.374 45.6318 131.23 45.9678V46.1118C131.182 46.3038 131.086 46.5438 130.846 46.5438C130.462 46.4958 130.222 46.3038 130.174 45.9678C130.078 45.5358 129.982 45.0558 129.982 44.5758C129.838 41.5038 129.79 38.5758 129.79 35.7438C129.79 33.4398 129.838 31.2318 129.934 29.0718C129.982 28.0158 129.982 26.9118 129.982 25.8558V24.1278C129.982 24.0798 129.934 24.0318 129.982 23.9838C129.982 23.9358 130.078 23.8878 130.174 23.8398C130.366 23.7918 130.51 23.9358 130.606 24.0318C130.846 24.2718 130.846 24.5598 130.846 24.8478V26.4798C130.846 27.9678 130.846 29.4558 130.798 30.8958V33.9678C130.75 37.1838 130.798 40.5438 130.942 44.5758C131.038 44.4798 131.086 44.3838 131.134 44.2878V44.1438C132.526 39.5838 134.302 35.0718 136.51 30.3678L136.798 29.7918C136.942 29.5038 137.086 29.2158 137.182 28.9278C137.422 28.3038 137.902 27.9678 138.382 27.6318L138.526 27.4878C138.814 27.2958 139.054 27.4398 139.246 27.5838C139.63 27.9198 139.774 28.3518 139.918 28.7838C140.206 29.6478 140.398 30.5598 140.59 31.4238C140.686 31.9518 140.782 32.4798 140.926 33.0078L141.022 33.3438C141.406 34.8798 141.79 36.4638 142.51 37.9518V38.1918C142.51 38.2398 142.51 38.2398 142.558 38.2398C142.846 38.7678 143.134 39.0558 143.47 39.1038C143.758 39.1518 144.094 39.0078 144.526 38.6238C145.006 38.1438 145.438 37.6158 145.774 37.0878C146.014 36.7038 146.254 36.3678 146.446 35.9838C147.118 34.8318 147.694 33.5838 148.174 32.3358L148.75 30.8478L149.182 29.8398L149.23 29.7918C149.278 29.5998 149.326 29.4078 149.47 29.4078C149.566 29.4078 149.662 29.5038 149.806 29.6958ZM150.268 34.2558H150.22V36.9918C150.22 38.5278 150.268 40.0638 150.268 41.5998C150.268 43.4718 150.268 45.3438 150.172 47.2158V47.3598C150.124 48.6078 150.028 49.8558 149.884 51.1518C149.788 51.7758 149.74 52.4478 149.596 53.0718C149.596 53.1678 149.548 53.2638 149.5 53.3598V53.5038C149.452 53.6478 149.404 53.8398 149.164 53.8398C149.02 53.8398 148.924 53.7918 148.828 53.6958C148.732 53.6478 148.684 53.5518 148.684 53.3598V52.1118C148.684 52.1118 148.684 51.8238 148.78 51.8238C148.972 51.8238 149.116 51.6798 149.164 51.5838C149.212 51.4878 149.212 51.3438 149.212 51.1998V50.9118C149.404 48.9918 149.5 47.0238 149.5 45.1038C149.5 43.8078 149.452 42.5118 149.452 41.2638V37.6638C149.404 33.8718 149.308 30.0798 149.212 26.3358V25.3758C149.116 21.8238 149.116 18.1758 149.116 14.7198V8.62377C149.116 7.47178 149.116 6.31978 148.924 5.16778C148.876 5.02378 148.876 4.87978 148.876 4.73578V4.35178C148.876 4.30378 148.924 4.25578 149.02 4.20778C149.26 4.15977 149.404 4.39977 149.5 4.49578C149.692 4.73578 149.692 5.02378 149.692 5.31177V5.45578L149.788 7.23178C149.884 9.00778 149.884 10.8318 149.932 12.6078C149.932 13.8078 149.932 15.0078 149.98 16.2078V17.5998L150.172 28.1598V30.3198C150.22 31.6158 150.268 32.9598 150.268 34.2558ZM174.268 27.1038L174.412 27.2958L174.604 27.1038C174.652 27.1998 174.652 27.2958 174.604 27.3918C174.508 27.5358 174.316 27.5838 174.172 27.6318H174.124L173.452 27.8718L172.828 28.0638C172.588 28.1598 172.348 28.2078 172.108 28.2558L168.556 29.3118C165.244 30.2238 161.836 31.4718 157.612 33.2478L156.7 33.6318C155.932 33.9678 155.26 34.1598 154.876 34.1598C153.628 34.1118 153.196 33.7278 153.196 32.7678C153.196 31.9038 153.484 31.0398 153.772 30.2718C155.308 26.2878 156.988 22.8318 158.956 19.6158C159.004 19.4718 159.1 19.3758 159.196 19.2318L159.484 18.8478L159.58 18.7038C159.676 18.5598 159.82 18.3678 160.06 18.5118C160.156 18.5598 160.204 18.6078 160.204 18.6558C160.204 18.7518 160.108 18.8478 160.06 18.9438C160.012 18.9918 159.964 19.0398 159.964 19.0878L159.772 19.4238C158.764 21.1038 157.708 22.8798 156.892 24.7038L156.652 25.2318L156.172 26.2878C155.308 28.1598 154.444 30.0798 153.916 32.0958C153.82 32.4798 153.772 32.8158 153.772 33.1518C153.772 33.3918 153.82 33.5358 153.916 33.5838C154.012 33.6798 154.156 33.6798 154.348 33.6318C155.356 33.3918 156.316 33.0078 157.42 32.4798C162.028 30.3198 166.876 28.9278 171.052 27.8718L172.588 27.4398L173.74 27.1518H173.884C174.028 27.1038 174.172 27.0558 174.268 27.1038ZM195.505 26.6718L195.409 26.5758C195.457 26.6718 195.457 26.7198 195.409 26.7678C195.361 26.8638 195.265 26.8638 195.169 26.8638H195.073L194.641 27.1518L194.113 27.5838C192.193 29.5038 190.417 31.5198 188.593 33.5838C188.017 34.2558 187.441 34.9278 186.913 35.5998C185.953 36.7038 184.993 37.8558 183.937 38.9118C183.601 39.2478 183.217 39.5358 182.737 39.8238C182.353 40.0638 181.921 40.2078 181.489 40.2078C180.769 40.2078 180.049 39.8238 179.617 39.1518C179.089 38.3838 178.849 37.5198 178.801 36.5118C178.753 34.4958 178.993 32.4318 179.521 30.1758L180.529 26.0478L181.537 21.9678C181.729 21.1518 181.825 20.4798 181.825 19.8558C181.825 19.0398 181.537 18.7518 180.721 18.7038C179.665 18.6558 178.657 18.8958 177.649 19.1838L177.217 19.3278C176.497 19.5678 175.777 19.8078 174.961 19.7598C175.921 22.2078 175.441 24.5118 174.769 27.0558C174.049 29.7918 173.041 32.0958 171.697 34.1118C171.313 34.6878 170.833 35.2158 170.209 35.7918C169.249 36.7038 168.337 36.9438 167.377 36.5598C166.417 36.1278 165.841 35.2638 165.745 34.0158C165.601 31.9518 166.033 29.7918 167.089 27.4398C167.377 26.8158 167.761 26.2878 168.145 25.7598L168.625 25.0398C168.865 24.7038 169.201 24.5598 169.537 24.6078C169.921 24.7038 170.209 24.9438 170.353 25.3758C170.641 26.3358 170.497 27.2478 169.969 28.3038C169.345 29.5518 168.433 30.6078 167.281 31.4718C166.897 31.7598 166.657 32.0478 166.657 32.6238V33.1998C166.657 33.7278 166.609 34.2558 166.753 34.7838C166.945 35.4558 167.281 35.8878 167.713 36.0318C168.145 36.1758 168.673 36.0318 169.249 35.5998C170.161 34.8798 170.929 33.9198 171.649 32.6238C173.521 29.1678 174.529 25.8558 174.769 22.4478C174.817 21.7758 174.721 21.0558 174.529 20.3358C174.385 19.8558 174.241 19.4238 173.761 19.1838C173.473 19.0398 173.281 18.7518 173.281 18.4158C173.281 18.2718 173.377 18.1758 173.521 18.1758C173.905 18.1758 174.145 18.4158 174.289 18.6558C174.673 19.4238 175.249 19.2798 175.873 19.1358L175.969 19.0878L177.121 18.7998C177.841 18.5598 178.609 18.3198 179.377 18.2238C179.905 18.1758 180.337 18.1758 180.769 18.2238C181.729 18.3198 182.449 18.9438 182.641 19.9038C182.833 20.9598 182.641 21.9678 182.449 22.9758V23.0718L181.537 27.1998C181.201 28.6878 180.865 30.2238 180.577 31.7598C180.193 33.6798 179.857 35.7438 180.145 37.8558C180.241 38.4318 180.385 38.8638 180.625 39.2478C181.009 39.8238 181.345 39.9198 181.969 39.6318C182.689 39.2958 183.265 38.7198 183.841 38.1438C184.801 37.1358 185.713 36.0798 186.577 35.0238C187.249 34.2078 187.969 33.3918 188.689 32.6238L189.553 31.7598C190.993 30.1758 192.481 28.5438 194.065 27.0558C194.353 26.7678 194.641 26.5758 194.977 26.4798C195.169 26.4318 195.409 26.4798 195.505 26.6718ZM166.945 31.1358C167.905 30.4638 168.529 29.6478 169.057 28.8318C169.585 28.0158 170.113 27.0558 169.921 25.8558V25.7118C169.921 25.5198 169.921 25.3278 169.729 25.2798H169.585C169.489 25.2798 169.393 25.3758 169.297 25.5198L169.153 25.6638C168.529 26.1918 168.241 26.9598 167.953 27.6798L167.809 27.9678C167.377 29.0718 167.089 30.0798 166.945 31.1358Z" fill="black"/>
</svg>
